<mxfile host="app.diagrams.net" agent="Mozilla/5.0 (Windows NT 10.0; Win64; x64) AppleWebKit/537.36 (KHTML, like Gecko) Chrome/139.0.0.0 Safari/537.36 Edg/139.0.0.0" version="28.1.2">
  <diagram name="Page-1" id="4XCOkrREE6T9JBMiZgMP">
    <mxGraphModel dx="1111" dy="1780" grid="1" gridSize="10" guides="1" tooltips="1" connect="1" arrows="1" fold="1" page="1" pageScale="1" pageWidth="850" pageHeight="1100" math="0" shadow="0">
      <root>
        <mxCell id="0" />
        <mxCell id="1" parent="0" />
        <mxCell id="5IF1ZIwpe9jYq8gnFkuq-1" value="MMA Sri Lanka" style="rounded=0;whiteSpace=wrap;html=1;" parent="1" vertex="1">
          <mxGeometry x="1110" y="-10" width="120" height="60" as="geometry" />
        </mxCell>
        <mxCell id="5IF1ZIwpe9jYq8gnFkuq-2" value="1. Registration" style="rounded=0;whiteSpace=wrap;html=1;" parent="1" vertex="1">
          <mxGeometry x="40" y="160" width="120" height="60" as="geometry" />
        </mxCell>
        <mxCell id="5IF1ZIwpe9jYq8gnFkuq-3" value="2. Login" style="rounded=0;whiteSpace=wrap;html=1;" parent="1" vertex="1">
          <mxGeometry x="280" y="160" width="120" height="60" as="geometry" />
        </mxCell>
        <mxCell id="5IF1ZIwpe9jYq8gnFkuq-4" value="3. Event Management" style="rounded=0;whiteSpace=wrap;html=1;" parent="1" vertex="1">
          <mxGeometry x="520" y="160" width="140" height="60" as="geometry" />
        </mxCell>
        <mxCell id="5IF1ZIwpe9jYq8gnFkuq-5" value="4. Profile" style="rounded=0;whiteSpace=wrap;html=1;" parent="1" vertex="1">
          <mxGeometry x="780" y="160" width="110" height="60" as="geometry" />
        </mxCell>
        <mxCell id="kDNrH8pa0huW1Xx7Rnd4-1" value="5. Home Page" style="rounded=0;whiteSpace=wrap;html=1;" vertex="1" parent="1">
          <mxGeometry x="1000" y="160" width="120" height="60" as="geometry" />
        </mxCell>
        <mxCell id="kDNrH8pa0huW1Xx7Rnd4-2" value="6. Events Page" style="rounded=0;whiteSpace=wrap;html=1;" vertex="1" parent="1">
          <mxGeometry x="1240" y="160" width="120" height="60" as="geometry" />
        </mxCell>
        <mxCell id="kDNrH8pa0huW1Xx7Rnd4-3" value="8. Contact Page" style="rounded=0;whiteSpace=wrap;html=1;" vertex="1" parent="1">
          <mxGeometry x="1670" y="160" width="120" height="60" as="geometry" />
        </mxCell>
        <mxCell id="kDNrH8pa0huW1Xx7Rnd4-4" value="7. About Page" style="rounded=0;whiteSpace=wrap;html=1;" vertex="1" parent="1">
          <mxGeometry x="1470" y="160" width="120" height="60" as="geometry" />
        </mxCell>
      </root>
    </mxGraphModel>
  </diagram>
</mxfile>
